<svg width="230" height="261" viewBox="0 0 230 261" fill="none" xmlns="http://www.w3.org/2000/svg">
<g filter="url(#filter0_d_109_664)">
<path d="M77.7795 29.184L37.6515 30.24L33.7155 23.424L41.8755 9.984L49.6515 14.592L45.7155 21.024L82.9635 20.064L87.4755 25.152L84.8835 42.432L75.8595 40.992L77.7795 29.184ZM26.0355 10.56L33.3315 15.936L21.7155 31.584L27.2835 31.872L24.6915 87.552L15.5715 87.264L17.9715 36.672L13.1715 43.2L5.8755 37.824L26.0355 10.56ZM57.1395 74.592L53.4915 37.632L62.5155 36.864L66.4515 77.184L63.5715 81.792L45.5235 88.992L42.1635 80.544L57.1395 74.592ZM43.1235 47.52L50.4195 52.704L34.5795 75.072L27.2835 69.984L43.1235 47.52ZM75.8595 50.592L88.8195 71.52L81.0435 76.32L68.1795 55.392L75.8595 50.592ZM109.26 68.928L98.604 56.352L98.124 51.264L107.34 34.08L96.684 32.544L98.028 23.52L111.948 25.536L119.34 11.904L127.404 16.224L121.644 26.88L134.508 28.704L133.164 37.632L117.036 35.424L107.628 52.8L113.964 60.384L122.988 44.064L131.052 48.384L120.3 67.776L129.228 78.24L122.22 84.096L115.596 76.32L109.74 86.88L101.772 82.656L109.26 68.928ZM148.428 52.512L147.084 43.68L148.428 39.552L161.58 26.976L136.14 23.04L137.58 14.016L172.14 19.392L174.732 27.264L156.492 44.544L157.452 50.976L172.62 48.384L174.252 57.312L158.892 60L162.444 81.984L157.644 87.072L135.18 85.536L135.948 76.704L152.46 77.76L149.868 61.536L132.684 64.416L131.148 55.392L148.428 52.512Z" fill="white"/>
<path d="M43.608 169.12L45.816 171.808L42.648 187.84L38.184 186.928L40.824 173.632H28.2L24.984 183.136L20.76 181.696L26.568 164.416L30.84 165.952L29.736 169.12H43.608ZM20.808 196.816L17.064 199.36L12.888 193.216L8.424 204.112L4.296 202.336L9.864 188.704L4.488 180.64L8.28 178.096L11.976 183.616L15.48 175.072L6.504 171.136L8.376 167.008L19.32 171.808L20.52 174.736L15 188.128L20.808 196.816ZM32.136 189.472L45.576 201.616L42.504 204.976L29.784 193.504L23.976 204.592L19.944 202.528L33.336 176.848L37.368 178.96L31.512 190.144L32.136 189.472ZM61.8443 170.176L63.4283 167.824L72.2603 165.376L73.4603 169.744L66.4523 171.664L67.7003 187.024L70.5803 184.096L73.8443 187.264L67.4603 193.696L63.6203 192.304L61.8443 170.176ZM51.1883 165.424L60.5483 168.64L59.0603 172.912L49.7003 169.696L51.1883 165.424ZM76.2923 168.064L86.9483 166.864L89.4923 169.312L87.6683 190.864L84.7883 192.832L80.5643 191.632L81.7643 187.264L83.4443 187.744L84.7403 171.664L78.8843 172.336L79.5083 194.032L75.0443 194.176L74.3243 170.416L76.2923 168.064ZM54.5003 195.328L55.4123 180.352L48.9803 179.392L49.6523 174.88L58.1483 176.224L60.0203 178.576L59.0603 194.32L86.8043 199.072L85.9883 203.584L57.5723 198.64L52.7723 204.16L49.3643 201.184L54.5003 195.328ZM123.713 191.728L122.897 193.408L121.553 194.464L133.361 199.168L131.681 203.392L117.521 197.728L110.273 203.536L107.441 200.032L112.673 195.76L108.017 193.888L109.697 189.712L116.705 192.544L119.201 190.48L119.297 188.656H112.385L110.177 186.736L108.737 177.76L111.041 175.12L120.017 175.648L120.113 173.776L108.497 173.632L108.545 169.072L120.401 169.216L120.593 165.856L125.105 166.192L124.913 169.264L132.881 169.36L132.833 173.872L124.673 173.824L124.577 175.936L131.537 176.32L133.553 179.152L131.441 186.976L129.281 188.656H123.857L123.713 191.728ZM103.841 166.96L107.153 170.08L102.065 175.456L105.233 175.6L103.937 203.2L99.4245 202.96L100.577 176.992L96.5445 181.216L93.2325 178.096L103.841 166.96ZM119.777 180.16L113.633 179.776L114.305 184.192H119.536L119.777 180.16ZM124.097 184.192H127.553L128.465 180.688L124.337 180.448L124.097 184.192ZM156.541 192.688L146.557 193.744L146.605 197.248L146.269 198.592L141.997 204.688L138.205 202.24L142.093 196.624L141.709 168.592L143.869 166.24L173.629 164.8L175.933 166.96L176.893 199.648L175.645 201.76L170.029 204.448L168.013 200.464L172.333 198.352L171.517 169.408L161.437 169.936L161.341 177.088L169.789 177.28L169.645 181.84L161.245 181.648L161.149 187.648L170.029 186.688L170.509 191.2L161.101 192.208L160.909 203.008L156.349 202.912L156.541 192.688ZM156.829 176.992L156.925 170.176L146.269 170.704L146.509 189.184L156.637 188.128L156.733 181.552L148.525 181.312L148.573 176.8L156.829 176.992ZM5.4 247.408L7.704 217.792L10.008 215.68L34.2 216.448L34.008 220.96L12.024 220.288L11.304 229.696L32.088 229.36L32.184 233.92L10.92 234.256L10.104 245.152L34.68 243.136L35.064 247.648L7.848 249.856L5.4 247.408ZM63.3788 248.368L62.5148 247.36L42.6908 250.528L40.0988 247.792L42.8828 236.8L45.0428 235.072H60.2108L59.2028 227.584L41.9228 231.808L40.8188 227.44L60.5468 222.592L63.3308 224.512L66.0188 244.432L69.3788 245.392L68.1788 249.712L63.3788 248.368ZM61.2668 242.944L60.8348 239.632H46.8188L45.3308 245.488L61.2668 242.944ZM72.2438 248.464L73.1078 244L85.2038 246.304L88.7558 240.16L74.4518 238.144L72.5318 235.648L73.2518 226.384L75.3638 224.32L90.7238 223.12L91.0118 227.632L77.6678 228.64L77.2358 233.92L92.6438 236.128L94.3238 239.488L88.3238 249.952L85.9718 251.008L72.2438 248.464ZM95.7769 249.28L103.889 239.44L95.7769 229.6L99.2809 226.72L106.865 235.888L116.321 224.416L119.777 227.296L99.2809 252.16L95.7769 249.28ZM122.177 236.608L148.625 234.592L148.961 238.528L122.465 240.496L122.177 236.608ZM173.504 235.264L174.32 239.776L160.592 242.08L156.464 251.152L152.336 249.328L168.32 214.384L172.448 214.336L187.04 245.008L182.96 246.976L170.384 220.672L162.896 237.088L173.504 235.264ZM191.119 252.352L192.799 223.984L195.487 221.872L210.463 224.944L212.191 226.912L213.727 238.864L211.951 241.408L199.087 244.096L198.127 239.728L209.023 237.376L207.919 229.072L197.119 226.864L195.631 252.592L191.119 252.352ZM219.225 221.872L223.593 220.672L225.033 226.048L220.665 227.248L219.225 221.872ZM218.025 249.088L220.377 230.032L224.889 230.56L222.537 249.616L218.025 249.088Z" fill="white"/>
</g>
<defs>
<filter id="filter0_d_109_664" x="-1" y="0" width="232" height="264" filterUnits="userSpaceOnUse" color-interpolation-filters="sRGB">
<feFlood flood-opacity="0" result="BackgroundImageFix"/>
<feColorMatrix in="SourceAlpha" type="matrix" values="0 0 0 0 0 0 0 0 0 0 0 0 0 0 0 0 0 0 127 0" result="hardAlpha"/>
<feOffset dy="4"/>
<feGaussianBlur stdDeviation="2"/>
<feComposite in2="hardAlpha" operator="out"/>
<feColorMatrix type="matrix" values="0 0 0 0 0 0 0 0 0 0 0 0 0 0 0 0 0 0 0.25 0"/>
<feBlend mode="normal" in2="BackgroundImageFix" result="effect1_dropShadow_109_664"/>
<feBlend mode="normal" in="SourceGraphic" in2="effect1_dropShadow_109_664" result="shape"/>
</filter>
</defs>
</svg>
